<svg width="47" height="36" viewBox="0 0 47 36" fill="none" xmlns="http://www.w3.org/2000/svg">
<path d="M46 1L23.5 21.7778L1 1" stroke="black" stroke-width="2" stroke-linecap="round" stroke-linejoin="round"/>
<path d="M46 1L23.5 21.7778L1 1" stroke="black" stroke-width="2" stroke-linecap="round" stroke-linejoin="round"/>
<path d="M1 1H46V33.1111C46 33.6121 45.8025 34.0925 45.4508 34.4468C45.0992 34.801 44.6223 35 44.125 35H2.875C2.37772 35 1.90081 34.801 1.54918 34.4468C1.19754 34.0925 1 33.6121 1 33.1111V1Z" stroke="black" stroke-width="2" stroke-linecap="round" stroke-linejoin="round"/>
<path d="M1 1H46V33.1111C46 33.6121 45.8025 34.0925 45.4508 34.4468C45.0992 34.801 44.6223 35 44.125 35H2.875C2.37772 35 1.90081 34.801 1.54918 34.4468C1.19754 34.0925 1 33.6121 1 33.1111V1Z" stroke="black" stroke-width="2" stroke-linecap="round" stroke-linejoin="round"/>
<path d="M19.409 18L1.57812 34.4662" stroke="black" stroke-width="2" stroke-linecap="round" stroke-linejoin="round"/>
<path d="M19.409 18L1.57812 34.4662" stroke="black" stroke-width="2" stroke-linecap="round" stroke-linejoin="round"/>
<path d="M45.4221 34.4663L27.5908 18" stroke="black" stroke-width="2" stroke-linecap="round" stroke-linejoin="round"/>
<path d="M45.4221 34.4663L27.5908 18" stroke="black" stroke-width="2" stroke-linecap="round" stroke-linejoin="round"/>
</svg>
