<svg width="48" height="47" viewBox="0 0 48 47" fill="none" xmlns="http://www.w3.org/2000/svg">
<path d="M23.9374 33.2822C29.3402 33.2822 33.72 28.9023 33.72 23.4995C33.72 18.0967 29.3402 13.7168 23.9374 13.7168C18.5346 13.7168 14.1548 18.0967 14.1548 23.4995C14.1548 28.9023 18.5346 33.2822 23.9374 33.2822Z" stroke="black" stroke-width="2" stroke-linecap="round" stroke-linejoin="round"/>
<path d="M23.9374 33.2822C29.3402 33.2822 33.72 28.9023 33.72 23.4995C33.72 18.0967 29.3402 13.7168 23.9374 13.7168C18.5346 13.7168 14.1548 18.0967 14.1548 23.4995C14.1548 28.9023 18.5346 33.2822 23.9374 33.2822Z" stroke="black" stroke-width="2" stroke-linecap="round" stroke-linejoin="round"/>
<path d="M34.6984 1H13.1766C6.69329 1 1.4375 6.25579 1.4375 12.7391V34.2609C1.4375 40.7442 6.69329 46 13.1766 46H34.6984C41.1817 46 46.4375 40.7442 46.4375 34.2609V12.7391C46.4375 6.25579 41.1817 1 34.6984 1Z" stroke="black" stroke-width="2" stroke-linecap="round" stroke-linejoin="round"/>
<path d="M34.6984 1H13.1766C6.69329 1 1.4375 6.25579 1.4375 12.7391V34.2609C1.4375 40.7442 6.69329 46 13.1766 46H34.6984C41.1817 46 46.4375 40.7442 46.4375 34.2609V12.7391C46.4375 6.25579 41.1817 1 34.6984 1Z" stroke="black" stroke-width="2" stroke-linecap="round" stroke-linejoin="round"/>
<path d="M36.6548 12.7389C37.7353 12.7389 38.6113 11.863 38.6113 10.7826C38.6113 9.70207 37.7353 8.82617 36.6548 8.82617C35.5742 8.82617 34.6982 9.70207 34.6982 10.7826C34.6982 11.863 35.5742 12.7389 36.6548 12.7389Z" fill="black"/>
</svg>
