<svg width="32" height="32" viewBox="0 0 32 32" fill="none" xmlns="http://www.w3.org/2000/svg">
<path d="M16 22.2502C19.4518 22.2502 22.25 19.4519 22.25 16.0001C22.25 12.5483 19.4518 9.75 16 9.75C12.5482 9.75 9.75 12.5483 9.75 16.0001C9.75 19.4519 12.5482 22.2502 16 22.2502Z" stroke="white" stroke-width="2" stroke-linecap="round" stroke-linejoin="round"/>
<path d="M22.875 1.625H9.125C4.98286 1.625 1.625 4.98289 1.625 9.12506V22.8752C1.625 27.0173 4.98286 30.3752 9.125 30.3752H22.875C27.0171 30.3752 30.375 27.0173 30.375 22.8752V9.12506C30.375 4.98289 27.0171 1.625 22.875 1.625Z" stroke="white" stroke-width="2" stroke-linecap="round" stroke-linejoin="round"/>
<path d="M24.125 9.12484C24.8154 9.12484 25.375 8.56523 25.375 7.87492C25.375 7.18461 24.8154 6.625 24.125 6.625C23.4346 6.625 22.875 7.18461 22.875 7.87492C22.875 8.56523 23.4346 9.12484 24.125 9.12484Z" fill="white"/>
</svg>
