<svg width="35" height="35" viewBox="0 0 35 35" fill="none" xmlns="http://www.w3.org/2000/svg">
<rect x="1" y="1" width="33" height="33" rx="10" stroke="white" stroke-width="2"/>
<rect x="1" y="1" width="33" height="33" rx="10" stroke="white" stroke-width="2"/>
<path d="M22.5008 27.841C20.4853 27.8438 18.4891 27.449 16.6264 26.679C14.7638 25.909 13.0714 24.7791 11.6463 23.3539C10.2211 21.9287 9.09115 20.2364 8.32117 18.3737C7.5512 16.5111 7.15633 14.5149 7.1592 12.4994C7.16375 11.0807 7.73083 9.72175 8.73602 8.72063C9.74122 7.71952 11.1025 7.15797 12.5211 7.15918C12.7538 7.15918 12.9824 7.2207 13.1836 7.33749C13.3849 7.45429 13.5517 7.62221 13.6672 7.82425L15.906 11.7422C16.041 11.9784 16.1106 12.2464 16.1077 12.5185C16.1048 12.7907 16.0295 13.0571 15.8895 13.2904L14.0915 16.2871C15.0165 18.3399 16.6603 19.9836 18.7131 20.9087L18.6093 20.8611L21.7097 19.1107C21.9431 18.9707 22.2095 18.8953 22.4816 18.8925C22.7537 18.8896 23.0217 18.9592 23.258 19.0942L27.1759 21.333C27.378 21.4485 27.5459 21.6153 27.6627 21.8165C27.7795 22.0178 27.841 22.2463 27.841 22.479C27.8369 23.8961 27.2737 25.2543 26.2737 26.2583C25.2737 27.2624 23.9179 27.8312 22.5008 27.841Z" stroke="white" stroke-width="2" stroke-linecap="round" stroke-linejoin="round"/>
<path d="M22.5008 27.841C20.4853 27.8438 18.4891 27.449 16.6264 26.679C14.7638 25.909 13.0714 24.7791 11.6463 23.3539C10.2211 21.9287 9.09115 20.2364 8.32117 18.3737C7.5512 16.5111 7.15633 14.5149 7.1592 12.4994C7.16375 11.0807 7.73083 9.72175 8.73602 8.72063C9.74122 7.71952 11.1025 7.15797 12.5211 7.15918C12.7538 7.15918 12.9824 7.2207 13.1836 7.33749C13.3849 7.45429 13.5517 7.62221 13.6672 7.82425L15.906 11.7422C16.041 11.9784 16.1106 12.2464 16.1077 12.5185C16.1048 12.7907 16.0295 13.0571 15.8895 13.2904L14.0915 16.2871C15.0165 18.3399 16.6603 19.9836 18.7131 20.9087L18.6093 20.8611L21.7097 19.1107C21.9431 18.9707 22.2095 18.8953 22.4816 18.8925C22.7537 18.8896 23.0217 18.9592 23.258 19.0942L27.1759 21.333C27.378 21.4485 27.5459 21.6153 27.6627 21.8165C27.7795 22.0178 27.841 22.2463 27.841 22.479C27.8369 23.8961 27.2737 25.2543 26.2737 26.2583C25.2737 27.2624 23.9179 27.8312 22.5008 27.841Z" stroke="white" stroke-width="2" stroke-linecap="round" stroke-linejoin="round"/>
</svg>
