<svg width="44" height="44" viewBox="0 0 44 44" fill="none" xmlns="http://www.w3.org/2000/svg">
<rect x="1" y="1" width="42" height="42" rx="15" stroke="black" stroke-width="2"/>
<rect x="1" y="1" width="42" height="42" rx="15" stroke="black" stroke-width="2"/>
<path d="M28.2866 35C25.7529 35.0036 23.2433 34.5072 20.9017 33.5392C18.5601 32.5712 16.4326 31.1507 14.6409 29.3591C12.8493 27.5674 11.4288 25.4399 10.4608 23.0983C9.49282 20.7567 8.99642 18.2471 9.00002 15.7134C9.00575 13.9299 9.71864 12.2215 10.9823 10.963C12.246 9.70442 13.9573 8.99848 15.7407 9C16.0333 9 16.3206 9.07733 16.5736 9.22416C16.8266 9.37099 17.0363 9.5821 17.1815 9.83608L19.996 14.7615C20.1657 15.0585 20.2533 15.3954 20.2496 15.7375C20.246 16.0796 20.1513 16.4145 19.9753 16.7079L17.7149 20.4751C18.8778 23.0558 20.9442 25.1222 23.5249 26.2851L23.3944 26.2253L27.2921 24.0248C27.5855 23.8487 27.9204 23.754 28.2625 23.7504C28.6046 23.7468 28.9415 23.8343 29.2385 24.004L34.1639 26.8185C34.4179 26.9637 34.629 27.1734 34.7758 27.4264C34.9227 27.6794 35 27.9667 35 28.2593C34.9949 30.0407 34.2868 31.7481 33.0297 33.0104C31.7726 34.2726 30.068 34.9876 28.2866 35Z" stroke="black" stroke-width="2" stroke-linecap="round" stroke-linejoin="round"/>
<path d="M28.2866 35C25.7529 35.0036 23.2433 34.5072 20.9017 33.5392C18.5601 32.5712 16.4326 31.1507 14.6409 29.3591C12.8493 27.5674 11.4288 25.4399 10.4608 23.0983C9.49282 20.7567 8.99642 18.2471 9.00002 15.7134C9.00575 13.9299 9.71864 12.2215 10.9823 10.963C12.246 9.70442 13.9573 8.99848 15.7407 9C16.0333 9 16.3206 9.07733 16.5736 9.22416C16.8266 9.37099 17.0363 9.5821 17.1815 9.83608L19.996 14.7615C20.1657 15.0585 20.2533 15.3954 20.2496 15.7375C20.246 16.0796 20.1513 16.4145 19.9753 16.7079L17.7149 20.4751C18.8778 23.0558 20.9442 25.1222 23.5249 26.2851L23.3944 26.2253L27.2921 24.0248C27.5855 23.8487 27.9204 23.754 28.2625 23.7504C28.6046 23.7468 28.9415 23.8343 29.2385 24.004L34.1639 26.8185C34.4179 26.9637 34.629 27.1734 34.7758 27.4264C34.9227 27.6794 35 27.9667 35 28.2593C34.9949 30.0407 34.2868 31.7481 33.0297 33.0104C31.7726 34.2726 30.068 34.9876 28.2866 35Z" stroke="black" stroke-width="2" stroke-linecap="round" stroke-linejoin="round"/>
</svg>
