<svg width="45" height="45" viewBox="0 0 45 45" fill="none" xmlns="http://www.w3.org/2000/svg">
<path d="M4.00874 33.4691C1.3364 28.9642 0.400517 23.6386 1.37684 18.4925C2.35317 13.3464 5.17454 8.73365 9.31116 5.52052C13.4478 2.30738 18.6151 0.714864 23.8428 1.042C29.0705 1.36913 33.999 3.59342 37.7027 7.29718C41.4065 11.0009 43.6308 15.9294 43.958 21.1571C44.2852 26.3848 42.6927 31.5521 39.4796 35.6888C36.2664 39.8254 31.6537 42.6468 26.5076 43.6231C21.3615 44.5995 16.036 43.6636 11.531 40.9913L11.5311 40.9911L4.10227 43.1136C3.79492 43.2014 3.46967 43.2054 3.16024 43.1253C2.8508 43.0451 2.56844 42.8836 2.34241 42.6576C2.11639 42.4316 1.95491 42.1492 1.87473 41.8398C1.79455 41.5303 1.79858 41.2051 1.8864 40.8977L4.00891 33.4689L4.00874 33.4691Z" stroke="black" stroke-width="2" stroke-linecap="round" stroke-linejoin="round"/>
<path d="M4.00874 33.4691C1.3364 28.9642 0.400517 23.6386 1.37684 18.4925C2.35317 13.3464 5.17454 8.73365 9.31116 5.52052C13.4478 2.30738 18.6151 0.714864 23.8428 1.042C29.0705 1.36913 33.999 3.59342 37.7027 7.29718C41.4065 11.0009 43.6308 15.9294 43.958 21.1571C44.2852 26.3848 42.6927 31.5521 39.4796 35.6888C36.2664 39.8254 31.6537 42.6468 26.5076 43.6231C21.3615 44.5995 16.036 43.6636 11.531 40.9913L11.5311 40.9911L4.10227 43.1136C3.79492 43.2014 3.46967 43.2054 3.16024 43.1253C2.8508 43.0451 2.56844 42.8836 2.34241 42.6576C2.11639 42.4316 1.95491 42.1492 1.87473 41.8398C1.79455 41.5303 1.79858 41.2051 1.8864 40.8977L4.00891 33.4689L4.00874 33.4691Z" stroke="black" stroke-width="2" stroke-linecap="round" stroke-linejoin="round"/>
<path d="M27.9115 35.0364C25.5534 35.0398 23.2178 34.5778 21.0386 33.6769C18.8593 32.7761 16.8792 31.454 15.2118 29.7866C13.5443 28.1192 12.2223 26.1391 11.3214 23.9598C10.4206 21.7806 9.95858 19.445 9.96193 17.0868C9.96727 15.427 10.6307 13.8371 11.8068 12.6658C12.9829 11.4945 14.5755 10.8375 16.2354 10.8389C16.5076 10.8389 16.775 10.9108 17.0105 11.0475C17.246 11.1841 17.4411 11.3806 17.5762 11.617L20.1956 16.2009C20.3536 16.4774 20.4351 16.7909 20.4317 17.1093C20.4283 17.4277 20.3402 17.7394 20.1763 18.0124L18.0727 21.5185C19.155 23.9203 21.0781 25.8434 23.4799 26.9257L23.2219 26.8053L26.986 24.8221C27.259 24.6582 27.5707 24.5701 27.8891 24.5667C28.2075 24.5633 28.521 24.6448 28.7974 24.8028L33.3814 27.4222C33.6178 27.5572 33.8142 27.7524 33.9509 27.9879C34.0875 28.2234 34.1595 28.4908 34.1595 28.763C34.1548 30.421 33.4958 32.01 32.3258 33.1848C31.1558 34.3595 29.5695 35.025 27.9115 35.0364Z" stroke="black" stroke-width="2" stroke-linecap="round" stroke-linejoin="round"/>
<path d="M27.9115 35.0364C25.5534 35.0398 23.2178 34.5778 21.0386 33.6769C18.8593 32.7761 16.8792 31.454 15.2118 29.7866C13.5443 28.1192 12.2223 26.1391 11.3214 23.9598C10.4206 21.7806 9.95858 19.445 9.96193 17.0868C9.96727 15.427 10.6307 13.8371 11.8068 12.6658C12.9829 11.4945 14.5755 10.8375 16.2354 10.8389C16.5076 10.8389 16.775 10.9108 17.0105 11.0475C17.246 11.1841 17.4411 11.3806 17.5762 11.617L20.1956 16.2009C20.3536 16.4774 20.4351 16.7909 20.4317 17.1093C20.4283 17.4277 20.3402 17.7394 20.1763 18.0124L18.0727 21.5185C19.155 23.9203 21.0781 25.8434 23.4799 26.9257L23.2219 26.8053L26.986 24.8221C27.259 24.6582 27.5707 24.5701 27.8891 24.5667C28.2075 24.5633 28.521 24.6448 28.7974 24.8028L33.3814 27.4222C33.6178 27.5572 33.8142 27.7524 33.9509 27.9879C34.0875 28.2234 34.1595 28.4908 34.1595 28.763C34.1548 30.421 33.4958 32.01 32.3258 33.1848C31.1558 34.3595 29.5695 35.025 27.9115 35.0364Z" stroke="black" stroke-width="2" stroke-linecap="round" stroke-linejoin="round"/>
</svg>
