<svg width="35" height="35" viewBox="0 0 35 35" fill="none" xmlns="http://www.w3.org/2000/svg">
<path d="M3.30904 25.9181C1.25816 22.4609 0.539932 18.3738 1.2892 14.4245C2.03848 10.4751 4.20372 6.93513 7.37833 4.46923C10.5529 2.00334 14.5186 0.781175 18.5305 1.03223C22.5425 1.28329 26.3248 2.9903 29.1672 5.83272C32.0097 8.67514 33.7167 12.4574 33.9678 16.4694C34.2188 20.4814 32.9967 24.447 30.5308 27.6216C28.065 30.7962 24.525 32.9615 20.5756 33.7108C16.6263 34.4601 12.5392 33.7419 9.08194 31.691L9.08198 31.6908L3.38081 33.3197C3.14494 33.3871 2.89533 33.3902 2.65786 33.3287C2.42038 33.2672 2.20369 33.1432 2.03022 32.9698C1.85676 32.7963 1.73284 32.5796 1.67131 32.3421C1.60977 32.1047 1.61286 31.8551 1.68026 31.6192L3.30916 25.918L3.30904 25.9181Z" stroke="white" stroke-width="2" stroke-linecap="round" stroke-linejoin="round"/>
<path d="M3.30904 25.9181C1.25816 22.4609 0.539932 18.3738 1.2892 14.4245C2.03848 10.4751 4.20372 6.93513 7.37833 4.46923C10.5529 2.00334 14.5186 0.781175 18.5305 1.03223C22.5425 1.28329 26.3248 2.9903 29.1672 5.83272C32.0097 8.67514 33.7167 12.4574 33.9678 16.4694C34.2188 20.4814 32.9967 24.447 30.5308 27.6216C28.065 30.7962 24.525 32.9615 20.5756 33.7108C16.6263 34.4601 12.5392 33.7419 9.08194 31.691L9.08198 31.6908L3.38081 33.3197C3.14494 33.3871 2.89533 33.3902 2.65786 33.3287C2.42038 33.2672 2.20369 33.1432 2.03022 32.9698C1.85676 32.7963 1.73284 32.5796 1.67131 32.3421C1.60977 32.1047 1.61286 31.8551 1.68026 31.6192L3.30916 25.918L3.30904 25.9181Z" stroke="white" stroke-width="2" stroke-linecap="round" stroke-linejoin="round"/>
<path d="M21.6532 27.121C19.8435 27.1236 18.0511 26.769 16.3786 26.0777C14.7062 25.3863 13.1866 24.3717 11.9069 23.0921C10.6272 21.8124 9.61265 20.2928 8.92129 18.6204C8.22993 16.9479 7.87537 15.1555 7.87794 13.3457C7.88204 12.0719 8.39121 10.8517 9.29378 9.95281C10.1963 9.05391 11.4186 8.5497 12.6924 8.55078C12.9014 8.55078 13.1066 8.60602 13.2873 8.71089C13.468 8.81576 13.6178 8.96654 13.7215 9.14795L15.7317 12.6659C15.8529 12.878 15.9155 13.1186 15.9129 13.363C15.9103 13.6073 15.8426 13.8465 15.7169 14.0561L14.1025 16.7468C14.9331 18.59 16.409 20.0659 18.2522 20.8965L18.0542 20.8041L20.9429 19.2821C21.1524 19.1564 21.3917 19.0887 21.636 19.0861C21.8803 19.0835 22.1209 19.146 22.3331 19.2673L25.851 21.2775C26.0324 21.3812 26.1832 21.5309 26.2881 21.7117C26.3929 21.8924 26.4482 22.0976 26.4482 22.3065C26.4445 23.5789 25.9388 24.7984 25.0409 25.7C24.143 26.6015 22.9256 27.1122 21.6532 27.121Z" stroke="white" stroke-width="2" stroke-linecap="round" stroke-linejoin="round"/>
<path d="M21.6532 27.121C19.8435 27.1236 18.0511 26.769 16.3786 26.0777C14.7062 25.3863 13.1866 24.3717 11.9069 23.0921C10.6272 21.8124 9.61265 20.2928 8.92129 18.6204C8.22993 16.9479 7.87537 15.1555 7.87794 13.3457C7.88204 12.0719 8.39121 10.8517 9.29378 9.95281C10.1963 9.05391 11.4186 8.5497 12.6924 8.55078C12.9014 8.55078 13.1066 8.60602 13.2873 8.71089C13.468 8.81576 13.6178 8.96654 13.7215 9.14795L15.7317 12.6659C15.8529 12.878 15.9155 13.1186 15.9129 13.363C15.9103 13.6073 15.8426 13.8465 15.7169 14.0561L14.1025 16.7468C14.9331 18.59 16.409 20.0659 18.2522 20.8965L18.0542 20.8041L20.9429 19.2821C21.1524 19.1564 21.3917 19.0887 21.636 19.0861C21.8803 19.0835 22.1209 19.146 22.3331 19.2673L25.851 21.2775C26.0324 21.3812 26.1832 21.5309 26.2881 21.7117C26.3929 21.8924 26.4482 22.0976 26.4482 22.3065C26.4445 23.5789 25.9388 24.7984 25.0409 25.7C24.143 26.6015 22.9256 27.1122 21.6532 27.121Z" stroke="white" stroke-width="2" stroke-linecap="round" stroke-linejoin="round"/>
</svg>
