<svg width="370" height="49" viewBox="0 0 370 49" fill="none" xmlns="http://www.w3.org/2000/svg">
<path d="M1 46.9984V3.74609L20 35.4984L38.5 3.82864V46.9984" stroke="white" stroke-width="2"/>
<path d="M62.5 47L85.5 3L108.5 47" stroke="white" stroke-width="2"/>
<path d="M132.5 47V3.5L166 45.5L166.5 2" stroke="white" stroke-width="2"/>
<path d="M190 2.5H224L190 46.5002H224" stroke="white" stroke-width="2"/>
<path d="M248 47L271 3L294 47" stroke="white" stroke-width="2"/>
<path d="M318 47V27.7412M333.5 27.7412C342.7 26.5412 345 18.5746 345 14.7412C345 1.14125 327 1.07458 318 2.74125V27.7412M333.5 27.7412H318M333.5 27.7412L345 46.7412" stroke="white" stroke-width="2"/>
<path d="M369 2V47" stroke="white" stroke-width="2"/>
</svg>
